<?xml version="1.0" standalone="no"?>
<!DOCTYPE svg PUBLIC "-//W3C//DTD SVG 20010904//EN"
 "http://www.w3.org/TR/2001/REC-SVG-20010904/DTD/svg10.dtd">
<svg version="1.0" xmlns="http://www.w3.org/2000/svg"
 width="384.000000pt" height="384.000000pt" viewBox="0 0 384.000000 384.000000"
 preserveAspectRatio="xMidYMid meet">
<metadata>
Created by potrace 1.14, written by Peter Selinger 2001-2017
</metadata>
<g transform="translate(0.000000,384.000000) scale(0.100000,-0.100000)"
fill="#000000" stroke="none">
<path d="M1320 3570 l0 -150 -300 0 -300 0 0 -150 0 -150 -150 0 -150 0 0
-300 0 -300 -150 0 -150 0 0 -600 0 -600 150 0 150 0 0 -300 0 -300 150 0 150
0 0 -150 0 -150 300 0 300 0 0 -150 0 -150 600 0 600 0 0 150 0 150 300 0 300
0 0 150 0 150 150 0 150 0 0 300 0 300 150 0 150 0 0 600 0 600 -150 0 -150 0
0 300 0 300 -150 0 -150 0 0 150 0 150 -300 0 -300 0 0 150 0 150 -600 0 -600
0 0 -150z"/>
</g>
</svg>
